<svg width="16" height="16" viewBox="0 0 16 16" fill="none" xmlns="http://www.w3.org/2000/svg">
<mask id="mask0_1_718" style="mask-type:alpha" maskUnits="userSpaceOnUse" x="0" y="0" width="16" height="16">
<rect width="16" height="16" fill="#D9D9D9"/>
</mask>
<g mask="url(#mask0_1_718)">
<path d="M7.66666 13.3333C7.11111 13.3333 6.63888 13.1389 6.24999 12.75C5.86111 12.3611 5.66666 11.8889 5.66666 11.3333H6.99999C6.99999 11.5222 7.06399 11.6804 7.19199 11.808C7.31955 11.936 7.47777 12 7.66666 12C7.85555 12 8.01399 11.936 8.14199 11.808C8.26955 11.6804 8.33333 11.5222 8.33333 11.3333C8.33333 11.1444 8.26955 10.9862 8.14199 10.8587C8.01399 10.7307 7.85555 10.6667 7.66666 10.6667H1.33333V9.33333H7.66666C8.22222 9.33333 8.69444 9.52778 9.08333 9.91667C9.47222 10.3056 9.66666 10.7778 9.66666 11.3333C9.66666 11.8889 9.47222 12.3611 9.08333 12.75C8.69444 13.1389 8.22222 13.3333 7.66666 13.3333ZM1.33333 6.66667V5.33333H10.3333C10.6222 5.33333 10.8611 5.23889 11.05 5.05C11.2389 4.86111 11.3333 4.62222 11.3333 4.33333C11.3333 4.04444 11.2389 3.80556 11.05 3.61667C10.8611 3.42778 10.6222 3.33333 10.3333 3.33333C10.0444 3.33333 9.80555 3.42778 9.61666 3.61667C9.42777 3.80556 9.33333 4.04444 9.33333 4.33333H7.99999C7.99999 3.67778 8.22488 3.12489 8.67466 2.67467C9.12488 2.22489 9.67777 2 10.3333 2C10.9889 2 11.5418 2.22489 11.992 2.67467C12.4418 3.12489 12.6667 3.67778 12.6667 4.33333C12.6667 4.98889 12.4418 5.54156 11.992 5.99133C11.5418 6.44156 10.9889 6.66667 10.3333 6.66667H1.33333ZM12.3333 12V10.6667C12.6222 10.6667 12.8611 10.5722 13.05 10.3833C13.2389 10.1944 13.3333 9.95555 13.3333 9.66667C13.3333 9.37778 13.2389 9.13889 13.05 8.95C12.8611 8.76111 12.6222 8.66667 12.3333 8.66667H1.33333V7.33333H12.3333C12.9889 7.33333 13.5418 7.55822 13.992 8.008C14.4418 8.45822 14.6667 9.01111 14.6667 9.66667C14.6667 10.3222 14.4418 10.8751 13.992 11.3253C13.5418 11.7751 12.9889 12 12.3333 12Z" fill="#1C1B1F"/>
</g>
</svg>
