<svg width="16" height="16" viewBox="0 0 16 16" fill="none" xmlns="http://www.w3.org/2000/svg">
<mask id="mask0_1_1095" style="mask-type:alpha" maskUnits="userSpaceOnUse" x="0" y="0" width="16" height="16">
<rect width="16" height="16" fill="#D9D9D9"/>
</mask>
<g mask="url(#mask0_1_1095)">
<path d="M3.33333 14.6667C2.96667 14.6667 2.65267 14.5362 2.39133 14.2753C2.13044 14.014 2 13.7 2 13.3333V4C2 3.63333 2.13044 3.31955 2.39133 3.05867C2.65267 2.79733 2.96667 2.66667 3.33333 2.66667H4V1.33333H5.33333V2.66667H10.6667V1.33333H12V2.66667H12.6667C13.0333 2.66667 13.3473 2.79733 13.6087 3.05867C13.8696 3.31955 14 3.63333 14 4V13.3333C14 13.7 13.8696 14.014 13.6087 14.2753C13.3473 14.5362 13.0333 14.6667 12.6667 14.6667H3.33333ZM3.33333 13.3333H12.6667V6.66667H3.33333V13.3333ZM3.33333 5.33333H12.6667V4H3.33333V5.33333ZM8 9.33333C7.81111 9.33333 7.65289 9.26933 7.52533 9.14133C7.39733 9.01378 7.33333 8.85555 7.33333 8.66667C7.33333 8.47778 7.39733 8.31933 7.52533 8.19133C7.65289 8.06378 7.81111 8 8 8C8.18889 8 8.34733 8.06378 8.47533 8.19133C8.60289 8.31933 8.66667 8.47778 8.66667 8.66667C8.66667 8.85555 8.60289 9.01378 8.47533 9.14133C8.34733 9.26933 8.18889 9.33333 8 9.33333ZM5.33333 9.33333C5.14444 9.33333 4.986 9.26933 4.858 9.14133C4.73044 9.01378 4.66667 8.85555 4.66667 8.66667C4.66667 8.47778 4.73044 8.31933 4.858 8.19133C4.986 8.06378 5.14444 8 5.33333 8C5.52222 8 5.68067 8.06378 5.80867 8.19133C5.93622 8.31933 6 8.47778 6 8.66667C6 8.85555 5.93622 9.01378 5.80867 9.14133C5.68067 9.26933 5.52222 9.33333 5.33333 9.33333ZM10.6667 9.33333C10.4778 9.33333 10.3196 9.26933 10.192 9.14133C10.064 9.01378 10 8.85555 10 8.66667C10 8.47778 10.064 8.31933 10.192 8.19133C10.3196 8.06378 10.4778 8 10.6667 8C10.8556 8 11.0138 8.06378 11.1413 8.19133C11.2693 8.31933 11.3333 8.47778 11.3333 8.66667C11.3333 8.85555 11.2693 9.01378 11.1413 9.14133C11.0138 9.26933 10.8556 9.33333 10.6667 9.33333ZM8 12C7.81111 12 7.65289 11.936 7.52533 11.808C7.39733 11.6804 7.33333 11.5222 7.33333 11.3333C7.33333 11.1444 7.39733 10.9862 7.52533 10.8587C7.65289 10.7307 7.81111 10.6667 8 10.6667C8.18889 10.6667 8.34733 10.7307 8.47533 10.8587C8.60289 10.9862 8.66667 11.1444 8.66667 11.3333C8.66667 11.5222 8.60289 11.6804 8.47533 11.808C8.34733 11.936 8.18889 12 8 12ZM5.33333 12C5.14444 12 4.986 11.936 4.858 11.808C4.73044 11.6804 4.66667 11.5222 4.66667 11.3333C4.66667 11.1444 4.73044 10.9862 4.858 10.8587C4.986 10.7307 5.14444 10.6667 5.33333 10.6667C5.52222 10.6667 5.68067 10.7307 5.80867 10.8587C5.93622 10.9862 6 11.1444 6 11.3333C6 11.5222 5.93622 11.6804 5.80867 11.808C5.68067 11.936 5.52222 12 5.33333 12ZM10.6667 12C10.4778 12 10.3196 11.936 10.192 11.808C10.064 11.6804 10 11.5222 10 11.3333C10 11.1444 10.064 10.9862 10.192 10.8587C10.3196 10.7307 10.4778 10.6667 10.6667 10.6667C10.8556 10.6667 11.0138 10.7307 11.1413 10.8587C11.2693 10.9862 11.3333 11.1444 11.3333 11.3333C11.3333 11.5222 11.2693 11.6804 11.1413 11.808C11.0138 11.936 10.8556 12 10.6667 12Z" fill="#1C1B1F"/>
</g>
</svg>
