<svg width="16" height="16" viewBox="0 0 16 16" fill="none" xmlns="http://www.w3.org/2000/svg">
<mask id="mask0_1_1156" style="mask-type:alpha" maskUnits="userSpaceOnUse" x="0" y="0" width="16" height="16">
<rect width="16" height="16" fill="#D9D9D9"/>
</mask>
<g mask="url(#mask0_1_1156)">
<mask id="mask1_1_1156" style="mask-type:alpha" maskUnits="userSpaceOnUse" x="0" y="0" width="17" height="17">
<rect x="0.00170898" y="0.131775" width="16" height="16" fill="#D9D9D9"/>
</mask>
<g mask="url(#mask1_1_1156)">
<path d="M11.4684 10.1818C11.3017 10.1151 11.1795 9.99555 11.1017 9.82311C11.0239 9.65111 11.0184 9.48178 11.085 9.31511C11.1628 9.12622 11.2184 8.92889 11.2517 8.72311C11.285 8.51778 11.3017 8.28178 11.3017 8.01511C11.3017 7.18178 10.985 6.44 10.3517 5.78978C9.71838 5.14 8.96838 4.81511 8.10171 4.81511C7.87949 4.81511 7.66015 4.83178 7.44371 4.86511C7.22682 4.89844 7.01282 4.95955 6.80171 5.04844C6.62393 5.12622 6.45171 5.12622 6.28504 5.04844C6.11838 4.97066 6.00171 4.84289 5.93504 4.66511C5.86838 4.48733 5.87126 4.31511 5.94371 4.14844C6.01571 3.98178 6.1406 3.86511 6.31838 3.79844C6.60726 3.68733 6.89615 3.60666 7.18504 3.55644C7.47393 3.50666 7.77949 3.48178 8.10171 3.48178C9.35726 3.48178 10.4266 3.92622 11.3097 4.81511C12.1933 5.704 12.635 6.77066 12.635 8.01511C12.635 8.37066 12.6157 8.68733 12.577 8.96511C12.5379 9.24289 12.4628 9.52622 12.3517 9.81511C12.285 9.98178 12.1657 10.0984 11.9937 10.1651C11.8213 10.2318 11.6462 10.2373 11.4684 10.1818ZM8.00171 12.7984C6.70171 12.7984 5.59904 12.3456 4.69371 11.4398C3.78793 10.5344 3.33504 9.43178 3.33504 8.13177C3.33504 7.67622 3.40438 7.218 3.54304 6.75711C3.68215 6.29577 3.89615 5.85955 4.18504 5.44844C4.2406 5.35955 4.31571 5.29 4.41038 5.23978C4.5046 5.19 4.60171 5.16511 4.70171 5.16511C4.82393 5.154 4.94349 5.18178 5.06038 5.24844C5.17682 5.31511 5.26282 5.404 5.31838 5.51511C5.9406 6.64844 6.70171 7.66222 7.60171 8.55644C8.50171 9.45111 9.51838 10.1984 10.6517 10.7984C10.7517 10.854 10.8322 10.9289 10.893 11.0231C10.9544 11.1178 10.9906 11.2262 11.0017 11.3484C11.0128 11.4596 10.9906 11.5651 10.935 11.6651C10.8795 11.7651 10.8073 11.8484 10.7184 11.9151C10.3073 12.204 9.87126 12.4236 9.41038 12.5738C8.94904 12.7236 8.47949 12.7984 8.00171 12.7984ZM8.00171 11.4651C8.15726 11.4651 8.31015 11.4567 8.46038 11.4398C8.61015 11.4233 8.76838 11.3873 8.93504 11.3318C8.10171 10.7984 7.3406 10.1873 6.65171 9.49844C5.96282 8.80955 5.34615 8.054 4.80171 7.23177C4.75726 7.38733 4.72393 7.53733 4.70171 7.68178C4.67949 7.82622 4.66838 7.97622 4.66838 8.13177C4.66838 9.07622 4.99904 9.86511 5.66038 10.4984C6.32126 11.1318 7.10171 11.454 8.00171 11.4651ZM8.00171 2.13177C7.81282 2.13177 7.6546 2.06777 7.52704 1.93977C7.39904 1.81222 7.33504 1.654 7.33504 1.46511V0.798442C7.33504 0.609553 7.39904 0.451108 7.52704 0.323108C7.6546 0.195553 7.81282 0.131775 8.00171 0.131775C8.1906 0.131775 8.34904 0.195553 8.47704 0.323108C8.6046 0.451108 8.66838 0.609553 8.66838 0.798442V1.46511C8.66838 1.654 8.6046 1.81222 8.47704 1.93977C8.34904 2.06777 8.1906 2.13177 8.00171 2.13177ZM8.00171 16.1318C7.81282 16.1318 7.6546 16.0678 7.52704 15.9398C7.39904 15.8122 7.33504 15.654 7.33504 15.4651V14.7984C7.33504 14.6096 7.39904 14.4513 7.52704 14.3238C7.6546 14.1958 7.81282 14.1318 8.00171 14.1318C8.1906 14.1318 8.34904 14.1958 8.47704 14.3238C8.6046 14.4513 8.66838 14.6096 8.66838 14.7984V15.4651C8.66838 15.654 8.6046 15.8122 8.47704 15.9398C8.34904 16.0678 8.1906 16.1318 8.00171 16.1318ZM12.235 3.88177C12.1017 3.74844 12.035 3.59 12.035 3.40644C12.035 3.22333 12.1017 3.06511 12.235 2.93177L12.7017 2.46511C12.835 2.33177 12.9962 2.26511 13.185 2.26511C13.3739 2.26511 13.535 2.33177 13.6684 2.46511C13.8017 2.59844 13.8657 2.75666 13.8604 2.93977C13.8546 3.12333 13.785 3.28178 13.6517 3.41511L13.185 3.88177C13.0517 4.01511 12.8933 4.08178 12.7097 4.08178C12.5266 4.08178 12.3684 4.01511 12.235 3.88177ZM2.35171 13.7818C2.21838 13.6484 2.15171 13.4902 2.15171 13.3071C2.15171 13.1236 2.21838 12.9651 2.35171 12.8318L2.81838 12.3651C2.9406 12.2429 3.0906 12.1818 3.26838 12.1818C3.44615 12.1818 3.60171 12.2429 3.73504 12.3651C3.86838 12.4873 3.9406 12.6429 3.95171 12.8318C3.96282 13.0207 3.90171 13.1818 3.76838 13.3151L3.30171 13.7818C3.16838 13.9151 3.01015 13.9818 2.82704 13.9818C2.64349 13.9818 2.48504 13.9151 2.35171 13.7818ZM14.6684 8.79844C14.4795 8.79844 14.3213 8.73444 14.1937 8.60644C14.0657 8.47889 14.0017 8.32066 14.0017 8.13177C14.0017 7.94289 14.0657 7.78444 14.1937 7.65644C14.3213 7.52889 14.4795 7.46511 14.6684 7.46511H15.335C15.5239 7.46511 15.6822 7.52889 15.8097 7.65644C15.9377 7.78444 16.0017 7.94289 16.0017 8.13177C16.0017 8.32066 15.9377 8.47889 15.8097 8.60644C15.6822 8.73444 15.5239 8.79844 15.335 8.79844H14.6684ZM0.668376 8.79844C0.479487 8.79844 0.321265 8.73444 0.193709 8.60644C0.065709 8.47889 0.00170898 8.32066 0.00170898 8.13177C0.00170898 7.94289 0.065709 7.78444 0.193709 7.65644C0.321265 7.52889 0.479487 7.46511 0.668376 7.46511H1.33504C1.52393 7.46511 1.68238 7.52889 1.81038 7.65644C1.93793 7.78444 2.00171 7.94289 2.00171 8.13177C2.00171 8.32066 1.93793 8.47889 1.81038 8.60644C1.68238 8.73444 1.52393 8.79844 1.33504 8.79844H0.668376ZM12.7017 13.7818L12.235 13.3151C12.1128 13.1929 12.0517 13.0429 12.0517 12.8651C12.0517 12.6873 12.1128 12.5318 12.235 12.3984C12.3573 12.2651 12.5128 12.1929 12.7017 12.1818C12.8906 12.1707 13.0517 12.2318 13.185 12.3651L13.6517 12.8318C13.785 12.9651 13.849 13.1207 13.8437 13.2984C13.8379 13.4762 13.7739 13.6318 13.6517 13.7651C13.5295 13.8984 13.3739 13.9678 13.185 13.9731C12.9962 13.9789 12.835 13.9151 12.7017 13.7818ZM2.81838 3.88177L2.35171 3.41511C2.21838 3.28178 2.15438 3.12889 2.15971 2.95644C2.16549 2.78444 2.22949 2.63177 2.35171 2.49844C2.47393 2.36511 2.62949 2.29289 2.81838 2.28177C3.00726 2.27066 3.16838 2.33177 3.30171 2.46511L3.76838 2.93177C3.90171 3.06511 3.96838 3.22333 3.96838 3.40644C3.96838 3.59 3.90171 3.74844 3.76838 3.88177C3.63504 4.01511 3.47682 4.08178 3.29371 4.08178C3.11015 4.08178 2.95171 4.01511 2.81838 3.88177Z" fill="#1C1B1F"/>
</g>
</g>
</svg>
