<svg width="16" height="16" viewBox="0 0 16 16" fill="none" xmlns="http://www.w3.org/2000/svg">
<mask id="mask0_1_730" style="mask-type:alpha" maskUnits="userSpaceOnUse" x="0" y="0" width="16" height="16">
<rect width="16" height="16" fill="#D9D9D9"/>
</mask>
<g mask="url(#mask0_1_730)">
<path d="M7.99999 10C8.55555 10 9.02777 9.80556 9.41666 9.41667C9.80555 9.02778 9.99999 8.55556 9.99999 8.00001C9.99999 7.44445 9.80555 6.97223 9.41666 6.58334C9.02777 6.19445 8.55555 6.00001 7.99999 6.00001C7.44443 6.00001 6.97221 6.19445 6.58332 6.58334C6.19443 6.97223 5.99999 7.44445 5.99999 8.00001C5.99999 8.55556 6.19443 9.02778 6.58332 9.41667C6.97221 9.80556 7.44443 10 7.99999 10ZM7.99999 11.3333C7.07777 11.3333 6.29177 11.0082 5.64199 10.358C4.99177 9.70823 4.66666 8.92223 4.66666 8.00001C4.66666 7.07778 4.99177 6.29156 5.64199 5.64134C6.29177 4.99156 7.07777 4.66667 7.99999 4.66667C8.92221 4.66667 9.70844 4.99156 10.3587 5.64134C11.0084 6.29156 11.3333 7.07778 11.3333 8.00001C11.3333 8.92223 11.0084 9.70823 10.3587 10.358C9.70844 11.0082 8.92221 11.3333 7.99999 11.3333ZM1.33332 8.66667C1.14443 8.66667 0.986212 8.60267 0.858656 8.47467C0.730656 8.34712 0.666656 8.18889 0.666656 8.00001C0.666656 7.81112 0.730656 7.65267 0.858656 7.52467C0.986212 7.39712 1.14443 7.33334 1.33332 7.33334H2.66666C2.85555 7.33334 3.01399 7.39712 3.14199 7.52467C3.26955 7.65267 3.33332 7.81112 3.33332 8.00001C3.33332 8.18889 3.26955 8.34712 3.14199 8.47467C3.01399 8.60267 2.85555 8.66667 2.66666 8.66667H1.33332ZM13.3333 8.66667C13.1444 8.66667 12.9862 8.60267 12.8587 8.47467C12.7307 8.34712 12.6667 8.18889 12.6667 8.00001C12.6667 7.81112 12.7307 7.65267 12.8587 7.52467C12.9862 7.39712 13.1444 7.33334 13.3333 7.33334H14.6667C14.8555 7.33334 15.0138 7.39712 15.1413 7.52467C15.2693 7.65267 15.3333 7.81112 15.3333 8.00001C15.3333 8.18889 15.2693 8.34712 15.1413 8.47467C15.0138 8.60267 14.8555 8.66667 14.6667 8.66667H13.3333ZM7.99999 3.33334C7.8111 3.33334 7.65288 3.26934 7.52532 3.14134C7.39732 3.01378 7.33332 2.85556 7.33332 2.66667V1.33334C7.33332 1.14445 7.39732 0.986005 7.52532 0.858005C7.65288 0.730449 7.8111 0.666672 7.99999 0.666672C8.18888 0.666672 8.34732 0.730449 8.47532 0.858005C8.60288 0.986005 8.66666 1.14445 8.66666 1.33334V2.66667C8.66666 2.85556 8.60288 3.01378 8.47532 3.14134C8.34732 3.26934 8.18888 3.33334 7.99999 3.33334ZM7.99999 15.3333C7.8111 15.3333 7.65288 15.2693 7.52532 15.1413C7.39732 15.0138 7.33332 14.8556 7.33332 14.6667V13.3333C7.33332 13.1445 7.39732 12.9862 7.52532 12.8587C7.65288 12.7307 7.8111 12.6667 7.99999 12.6667C8.18888 12.6667 8.34732 12.7307 8.47532 12.8587C8.60288 12.9862 8.66666 13.1445 8.66666 13.3333V14.6667C8.66666 14.8556 8.60288 15.0138 8.47532 15.1413C8.34732 15.2693 8.18888 15.3333 7.99999 15.3333ZM3.76666 4.70001L3.04999 4.00001C2.91666 3.87778 2.85266 3.72223 2.85799 3.53334C2.86377 3.34445 2.92777 3.18334 3.04999 3.05C3.18332 2.91667 3.34443 2.85001 3.53332 2.85001C3.72221 2.85001 3.87777 2.91667 3.99999 3.05L4.69999 3.76667C4.82221 3.90001 4.88332 4.05556 4.88332 4.23334C4.88332 4.41112 4.82221 4.56667 4.69999 4.70001C4.57777 4.83334 4.4251 4.89712 4.24199 4.89134C4.05843 4.886 3.89999 4.82223 3.76666 4.70001ZM12 12.95L11.3 12.2333C11.1778 12.1 11.1167 11.9418 11.1167 11.7587C11.1167 11.5751 11.1778 11.4222 11.3 11.3C11.4222 11.1667 11.5751 11.1029 11.7587 11.1087C11.9418 11.114 12.1 11.1778 12.2333 11.3L12.95 12C13.0833 12.1222 13.1473 12.2778 13.142 12.4667C13.1362 12.6556 13.0722 12.8167 12.95 12.95C12.8167 13.0833 12.6555 13.15 12.4667 13.15C12.2778 13.15 12.1222 13.0833 12 12.95ZM11.3 4.70001C11.1667 4.57778 11.1029 4.42489 11.1087 4.24134C11.114 4.05823 11.1778 3.90001 11.3 3.76667L12 3.05C12.1222 2.91667 12.2778 2.85267 12.4667 2.85801C12.6555 2.86378 12.8167 2.92778 12.95 3.05C13.0833 3.18334 13.15 3.34445 13.15 3.53334C13.15 3.72223 13.0833 3.87778 12.95 4.00001L12.2333 4.70001C12.1 4.82223 11.9444 4.88334 11.7667 4.88334C11.5889 4.88334 11.4333 4.82223 11.3 4.70001ZM3.04999 12.95C2.91666 12.8167 2.84999 12.6556 2.84999 12.4667C2.84999 12.2778 2.91666 12.1222 3.04999 12L3.76666 11.3C3.89999 11.1778 4.05843 11.1167 4.24199 11.1167C4.4251 11.1167 4.57777 11.1778 4.69999 11.3C4.83332 11.4222 4.89732 11.5751 4.89199 11.7587C4.88621 11.9418 4.82221 12.1 4.69999 12.2333L3.99999 12.95C3.87777 13.0833 3.72221 13.1471 3.53332 13.1413C3.34443 13.136 3.18332 13.0722 3.04999 12.95Z" fill="#1C1B1F"/>
</g>
</svg>
