<svg width="16" height="16" viewBox="0 0 16 16" fill="none" xmlns="http://www.w3.org/2000/svg">
<mask id="mask0_1_1117" style="mask-type:alpha" maskUnits="userSpaceOnUse" x="0" y="0" width="16" height="16">
<rect width="16" height="16" fill="#D9D9D9"/>
</mask>
<g mask="url(#mask0_1_1117)">
<path d="M8.73332 15.3333H6.99999L7.33332 15.1253C7.55555 14.9862 7.79732 14.8307 8.05866 14.6587C8.31955 14.4862 8.5611 14.3307 8.78332 14.192L9.11666 13.9833C10.0167 13.9167 10.8473 13.6444 11.6087 13.1667C12.3695 12.6889 12.9722 12.05 13.4167 11.25C12.4611 11.1611 11.5555 10.9196 10.7 10.5253C9.84443 10.1307 9.07777 9.59444 8.39999 8.91667C7.72221 8.23889 7.18332 7.47222 6.78332 6.61667C6.38332 5.76111 6.14443 4.85556 6.06666 3.9C5.2111 4.37778 4.54177 5.036 4.05866 5.87467C3.5751 6.71378 3.33332 7.62222 3.33332 8.6V8.8L3.13332 8.89133C2.99999 8.95267 2.85288 9.01667 2.69199 9.08333C2.53066 9.15 2.38332 9.21378 2.24999 9.27467L2.04999 9.36667C2.02777 9.24444 2.01399 9.11667 2.00866 8.98333C2.00288 8.85 1.99999 8.72222 1.99999 8.6C1.99999 6.97778 2.51666 5.54711 3.54999 4.308C4.58332 3.06933 5.89999 2.3 7.49999 2C7.29999 3.1 7.3611 4.17489 7.68332 5.22467C8.00555 6.27489 8.5611 7.19444 9.34999 7.98333C10.1389 8.77222 11.0584 9.32778 12.1087 9.65C13.1584 9.97222 14.2333 10.0333 15.3333 9.83333C15.0444 11.4333 14.2778 12.75 13.0333 13.7833C11.7889 14.8167 10.3555 15.3333 8.73332 15.3333ZM3.99999 14H6.99999C7.27777 14 7.51377 13.9027 7.70799 13.708C7.90266 13.5138 7.99999 13.2778 7.99999 13C7.99999 12.7222 7.90555 12.4862 7.71666 12.292C7.52777 12.0973 7.29999 12 7.03332 12H6.16666L5.83332 11.2C5.67777 10.8333 5.43332 10.5418 5.09999 10.3253C4.76666 10.1084 4.39999 10 3.99999 10C3.44443 10 2.97221 10.1918 2.58332 10.5753C2.19443 10.9584 1.99999 11.4333 1.99999 12C1.99999 12.5556 2.19443 13.0278 2.58332 13.4167C2.97221 13.8056 3.44443 14 3.99999 14ZM3.99999 15.3333C3.07777 15.3333 2.29177 15.0084 1.64199 14.3587C0.991768 13.7084 0.666656 12.9222 0.666656 12C0.666656 11.0778 0.991768 10.2916 1.64199 9.64133C2.29177 8.99156 3.07777 8.66667 3.99999 8.66667C4.66666 8.66667 5.2751 8.84711 5.82532 9.208C6.3751 9.56933 6.78332 10.0556 7.04999 10.6667C7.68332 10.6889 8.22221 10.9249 8.66666 11.3747C9.1111 11.8249 9.33332 12.3667 9.33332 13C9.33332 13.6444 9.10555 14.1944 8.64999 14.65C8.19443 15.1056 7.64443 15.3333 6.99999 15.3333H3.99999Z" fill="#1C1B1F"/>
</g>
</svg>
