<svg width="16" height="16" viewBox="0 0 16 16" fill="none" xmlns="http://www.w3.org/2000/svg">
<mask id="mask0_1_733" style="mask-type:alpha" maskUnits="userSpaceOnUse" x="0" y="0" width="16" height="16">
<rect width="16" height="16" fill="#D9D9D9"/>
</mask>
<g mask="url(#mask0_1_733)">
<path d="M9.30001 14.6C9.13334 14.6889 8.96401 14.7027 8.79201 14.6413C8.61957 14.5804 8.4889 14.4667 8.40001 14.3L7.40001 12.3C7.31112 12.1333 7.29734 11.964 7.35868 11.792C7.41957 11.6196 7.53334 11.4889 7.70001 11.4C7.86668 11.3111 8.03601 11.2973 8.20801 11.3587C8.38045 11.4196 8.51112 11.5333 8.60001 11.7L9.60001 13.7C9.6889 13.8667 9.7029 14.036 9.64201 14.208C9.58068 14.3804 9.46668 14.5111 9.30001 14.6ZM13.3 14.6C13.1333 14.6889 12.964 14.7027 12.792 14.6413C12.6196 14.5804 12.4889 14.4667 12.4 14.3L11.4 12.3C11.3111 12.1333 11.2973 11.964 11.3587 11.792C11.4196 11.6196 11.5333 11.4889 11.7 11.4C11.8667 11.3111 12.036 11.2973 12.208 11.3587C12.3805 11.4196 12.5111 11.5333 12.6 11.7L13.6 13.7C13.6889 13.8667 13.7029 14.036 13.642 14.208C13.5807 14.3804 13.4667 14.5111 13.3 14.6ZM5.30001 14.6C5.13334 14.6889 4.96401 14.7027 4.79201 14.6413C4.61957 14.5804 4.4889 14.4667 4.40001 14.3L3.40001 12.3C3.31112 12.1333 3.29734 11.964 3.35868 11.792C3.41957 11.6196 3.53334 11.4889 3.70001 11.4C3.86668 11.3111 4.03601 11.2973 4.20801 11.3587C4.38045 11.4196 4.51112 11.5333 4.60001 11.7L5.60001 13.7C5.6889 13.8667 5.7029 14.036 5.64201 14.208C5.58068 14.3804 5.46668 14.5111 5.30001 14.6ZM5.00001 10.6667C3.9889 10.6667 3.12512 10.3082 2.40868 9.59133C1.69179 8.87488 1.33334 8.01111 1.33334 7C1.33334 6.07777 1.6389 5.27222 2.25001 4.58333C2.86112 3.89444 3.61668 3.48888 4.51668 3.36666C4.87223 2.73333 5.35845 2.23599 5.97534 1.87466C6.59179 1.51377 7.26668 1.33333 8.00001 1.33333C9.00001 1.33333 9.86934 1.65288 10.608 2.29199C11.3471 2.93066 11.7945 3.72777 11.95 4.68333C12.7167 4.74999 13.3611 5.06666 13.8833 5.63333C14.4056 6.2 14.6667 6.87777 14.6667 7.66666C14.6667 8.5 14.3751 9.20844 13.792 9.792C13.2085 10.3751 12.5 10.6667 11.6667 10.6667H5.00001ZM5.00001 9.33333H11.6667C12.1333 9.33333 12.5278 9.17222 12.85 8.84999C13.1722 8.52777 13.3333 8.13333 13.3333 7.66666C13.3333 7.2 13.1722 6.80555 12.85 6.48333C12.5278 6.16111 12.1333 6 11.6667 6H10.6667V5.33333C10.6667 4.59999 10.4056 3.97222 9.88334 3.45C9.36112 2.92777 8.73334 2.66666 8.00001 2.66666C7.46668 2.66666 6.98045 2.81111 6.54134 3.1C6.10268 3.38888 5.77223 3.77777 5.55001 4.26666L5.38334 4.66666H4.96668C4.33334 4.68888 3.79179 4.92488 3.34201 5.37466C2.89179 5.82488 2.66668 6.36666 2.66668 7C2.66668 7.64444 2.89445 8.19444 3.35001 8.65C3.80557 9.10555 4.35557 9.33333 5.00001 9.33333Z" fill="#1C1B1F"/>
</g>
</svg>
