<svg width="24" height="32" viewBox="0 0 24 32" fill="none" xmlns="http://www.w3.org/2000/svg">
<path d="M12 24C18.6274 24 24 18.6274 24 12C24 5.37258 18.6274 0 12 0C5.37258 0 0 5.37258 0 12C0 18.6274 5.37258 24 12 24Z" fill="#FBBC04"/>
<path d="M12 24C18.6274 24 24 18.6274 24 12C24 5.37258 18.6274 0 12 0C5.37258 0 0 5.37258 0 12C0 18.6274 5.37258 24 12 24Z" fill="url(#paint0_linear_1_851)"/>
<path d="M15 32C19.9706 32 24 27.9706 24 23C24 18.0294 19.9706 14 15 14C10.0294 14 6 18.0294 6 23C6 27.9706 10.0294 32 15 32Z" fill="#9A9A9A" fill-opacity="0.9"/>
<path fill-rule="evenodd" clip-rule="evenodd" d="M6.01999 22.406C6.14334 20.5372 6.84662 18.7535 8.03183 17.3033C9.21703 15.8532 10.8251 14.8089 12.6319 14.316C14.4388 13.8232 16.3544 13.9062 18.1118 14.5537C19.8692 15.2011 21.3808 16.3807 22.436 17.928C21.3886 19.7724 19.8709 21.306 18.0376 22.3727C16.2043 23.4393 14.121 24.0009 12 24C9.82199 24 7.77999 23.42 6.01999 22.406Z" fill="url(#paint1_linear_1_851)"/>
<path fill-rule="evenodd" clip-rule="evenodd" d="M15 32C15 30.0109 14.2098 28.1032 12.8033 26.6967C11.3968 25.2902 9.48912 24.5 7.5 24.5C5.51088 24.5 3.60322 25.2902 2.1967 26.6967C0.790176 28.1032 0 30.0109 0 32C0.011 31.983 15.004 31.988 15 32Z" fill="#BBBDBE" fill-opacity="0.95"/>
<defs>
<linearGradient id="paint0_linear_1_851" x1="0" y1="0" x2="16.2862" y2="18.2474" gradientUnits="userSpaceOnUse">
<stop stop-color="#FCD35C"/>
<stop offset="1" stop-color="#FBBC04"/>
</linearGradient>
<linearGradient id="paint1_linear_1_851" x1="12" y1="14" x2="15.5" y2="24.5" gradientUnits="userSpaceOnUse">
<stop stop-color="#FCBF0F"/>
<stop offset="1" stop-color="#9A9A9A" stop-opacity="0"/>
</linearGradient>
</defs>
</svg>
