<svg width="16" height="16" viewBox="0 0 16 16" fill="none" xmlns="http://www.w3.org/2000/svg">
<mask id="mask0_1_727" style="mask-type:alpha" maskUnits="userSpaceOnUse" x="0" y="0" width="16" height="16">
<rect width="16" height="16" fill="#D9D9D9"/>
</mask>
<g mask="url(#mask0_1_727)">
<path d="M1.33333 13.5667V12.2667C1.65555 12.2667 1.93044 12.2167 2.15799 12.1167C2.38599 12.0167 2.61666 11.9085 2.84999 11.792C3.08333 11.6751 3.34177 11.5694 3.62533 11.4747C3.90844 11.3805 4.25555 11.3334 4.66666 11.3334C5.08888 11.3334 5.43599 11.3805 5.70799 11.4747C5.98044 11.5694 6.23333 11.6751 6.46666 11.792C6.69999 11.9085 6.93333 12.0167 7.16666 12.1167C7.39999 12.2167 7.67777 12.2667 7.99999 12.2667C8.32222 12.2667 8.59999 12.2167 8.83333 12.1167C9.06666 12.0167 9.29999 11.9085 9.53333 11.792C9.76666 11.6751 10.0222 11.5694 10.3 11.4747C10.5778 11.3805 10.9222 11.3334 11.3333 11.3334C11.7555 11.3334 12.1056 11.3805 12.3833 11.4747C12.6611 11.5694 12.9167 11.6751 13.15 11.792C13.3833 11.9085 13.6167 12.0167 13.85 12.1167C14.0833 12.2167 14.3555 12.2667 14.6667 12.2667V13.5667C14.2444 13.5667 13.8918 13.5167 13.6087 13.4167C13.3251 13.3167 13.0667 13.2082 12.8333 13.0913C12.6 12.9749 12.3722 12.8696 12.15 12.7754C11.9278 12.6807 11.6556 12.6334 11.3333 12.6334C11.0222 12.6334 10.7529 12.6807 10.5253 12.7754C10.2973 12.8696 10.0693 12.9749 9.84133 13.0913C9.61377 13.2082 9.35844 13.3167 9.07533 13.4167C8.79177 13.5167 8.43333 13.5667 7.99999 13.5667C7.56666 13.5667 7.20822 13.5167 6.92466 13.4167C6.64155 13.3167 6.38622 13.2082 6.15866 13.0913C5.93066 12.9749 5.70555 12.8696 5.48333 12.7754C5.26111 12.6807 4.98888 12.6334 4.66666 12.6334C4.35555 12.6334 4.08622 12.6807 3.85866 12.7754C3.63066 12.8696 3.39999 12.9749 3.16666 13.0913C2.93333 13.2082 2.67511 13.3167 2.39199 13.4167C2.10844 13.5167 1.75555 13.5667 1.33333 13.5667ZM1.33333 10.6V9.30002C1.65555 9.30002 1.93044 9.25002 2.15799 9.15002C2.38599 9.05002 2.61666 8.94179 2.84999 8.82535C3.08333 8.70846 3.34177 8.60268 3.62533 8.50802C3.90844 8.41379 4.25555 8.36668 4.66666 8.36668C5.08888 8.36668 5.43599 8.41379 5.70799 8.50802C5.98044 8.60268 6.23333 8.70846 6.46666 8.82535C6.69999 8.94179 6.93333 9.05002 7.16666 9.15002C7.39999 9.25002 7.67777 9.30002 7.99999 9.30002C8.32222 9.30002 8.59999 9.25002 8.83333 9.15002C9.06666 9.05002 9.29999 8.94179 9.53333 8.82535C9.76666 8.70846 10.0222 8.60268 10.3 8.50802C10.5778 8.41379 10.9222 8.36668 11.3333 8.36668C11.7555 8.36668 12.1056 8.41379 12.3833 8.50802C12.6611 8.60268 12.9167 8.70846 13.15 8.82535C13.3833 8.94179 13.6167 9.05002 13.85 9.15002C14.0833 9.25002 14.3555 9.30002 14.6667 9.30002V10.6C14.2444 10.6 13.8918 10.55 13.6087 10.45C13.3251 10.35 13.0667 10.2418 12.8333 10.1253C12.6 10.0085 12.3722 9.90268 12.15 9.80802C11.9278 9.71379 11.6556 9.66668 11.3333 9.66668C11.0111 9.66668 10.7362 9.71379 10.5087 9.80802C10.2807 9.90268 10.0529 10.0085 9.82533 10.1253C9.59733 10.2418 9.34444 10.35 9.06666 10.45C8.78888 10.55 8.43333 10.6 7.99999 10.6C7.56666 10.6 7.20822 10.55 6.92466 10.45C6.64155 10.35 6.38622 10.2418 6.15866 10.1253C5.93066 10.0085 5.70555 9.90268 5.48333 9.80802C5.26111 9.71379 4.98888 9.66668 4.66666 9.66668C4.35555 9.66668 4.08622 9.71379 3.85866 9.80802C3.63066 9.90268 3.39999 10.0085 3.16666 10.1253C2.93333 10.2418 2.67511 10.35 2.39199 10.45C2.10844 10.55 1.75555 10.6 1.33333 10.6ZM1.33333 7.63335V6.33335C1.65555 6.33335 1.93044 6.28335 2.15799 6.18335C2.38599 6.08335 2.61666 5.97491 2.84999 5.85802C3.08333 5.74157 3.34177 5.63602 3.62533 5.54135C3.90844 5.44713 4.25555 5.40002 4.66666 5.40002C5.08888 5.40002 5.43599 5.44713 5.70799 5.54135C5.98044 5.63602 6.23333 5.74157 6.46666 5.85802C6.69999 5.97491 6.93333 6.08335 7.16666 6.18335C7.39999 6.28335 7.67777 6.33335 7.99999 6.33335C8.32222 6.33335 8.59999 6.28335 8.83333 6.18335C9.06666 6.08335 9.29999 5.97491 9.53333 5.85802C9.76666 5.74157 10.0222 5.63602 10.3 5.54135C10.5778 5.44713 10.9222 5.40002 11.3333 5.40002C11.7555 5.40002 12.1056 5.44713 12.3833 5.54135C12.6611 5.63602 12.9167 5.74157 13.15 5.85802C13.3833 5.97491 13.6167 6.08335 13.85 6.18335C14.0833 6.28335 14.3555 6.33335 14.6667 6.33335V7.63335C14.2444 7.63335 13.8918 7.58335 13.6087 7.48335C13.3251 7.38335 13.0667 7.27513 12.8333 7.15868C12.6 7.04179 12.3722 6.93602 12.15 6.84135C11.9278 6.74713 11.6556 6.70002 11.3333 6.70002C11.0222 6.70002 10.7529 6.74713 10.5253 6.84135C10.2973 6.93602 10.0693 7.04179 9.84133 7.15868C9.61377 7.27513 9.35844 7.38335 9.07533 7.48335C8.79177 7.58335 8.43333 7.63335 7.99999 7.63335C7.56666 7.63335 7.20822 7.58335 6.92466 7.48335C6.64155 7.38335 6.38622 7.27513 6.15866 7.15868C5.93066 7.04179 5.70555 6.93602 5.48333 6.84135C5.26111 6.74713 4.98888 6.70002 4.66666 6.70002C4.35555 6.70002 4.08622 6.74713 3.85866 6.84135C3.63066 6.93602 3.39999 7.04179 3.16666 7.15868C2.93333 7.27513 2.67511 7.38335 2.39199 7.48335C2.10844 7.58335 1.75555 7.63335 1.33333 7.63335ZM1.33333 4.66668V3.36668C1.65555 3.36668 1.93044 3.31668 2.15799 3.21668C2.38599 3.11668 2.61666 3.00824 2.84999 2.89135C3.08333 2.77491 3.34177 2.66935 3.62533 2.57468C3.90844 2.48046 4.25555 2.43335 4.66666 2.43335C5.08888 2.43335 5.43599 2.48046 5.70799 2.57468C5.98044 2.66935 6.23333 2.77491 6.46666 2.89135C6.69999 3.00824 6.93333 3.11668 7.16666 3.21668C7.39999 3.31668 7.67777 3.36668 7.99999 3.36668C8.32222 3.36668 8.59999 3.31668 8.83333 3.21668C9.06666 3.11668 9.29999 3.00824 9.53333 2.89135C9.76666 2.77491 10.0222 2.66935 10.3 2.57468C10.5778 2.48046 10.9222 2.43335 11.3333 2.43335C11.7555 2.43335 12.1056 2.48046 12.3833 2.57468C12.6611 2.66935 12.9167 2.77491 13.15 2.89135C13.3833 3.00824 13.6167 3.11668 13.85 3.21668C14.0833 3.31668 14.3555 3.36668 14.6667 3.36668V4.66668C14.2444 4.66668 13.8918 4.61668 13.6087 4.51668C13.3251 4.41668 13.0667 4.30824 12.8333 4.19135C12.6 4.07491 12.3722 3.96935 12.15 3.87468C11.9278 3.78046 11.6556 3.73335 11.3333 3.73335C11.0222 3.73335 10.7529 3.78046 10.5253 3.87468C10.2973 3.96935 10.0693 4.07491 9.84133 4.19135C9.61377 4.30824 9.35844 4.41668 9.07533 4.51668C8.79177 4.61668 8.43333 4.66668 7.99999 4.66668C7.56666 4.66668 7.20822 4.61668 6.92466 4.51668C6.64155 4.41668 6.38622 4.30824 6.15866 4.19135C5.93066 4.07491 5.70555 3.96935 5.48333 3.87468C5.26111 3.78046 4.98888 3.73335 4.66666 3.73335C4.35555 3.73335 4.08622 3.78046 3.85866 3.87468C3.63066 3.96935 3.39999 4.07491 3.16666 4.19135C2.93333 4.30824 2.67511 4.41668 2.39199 4.51668C2.10844 4.61668 1.75555 4.66668 1.33333 4.66668Z" fill="#1C1B1F"/>
</g>
</svg>
